<?xml version="1.0" encoding="UTF-8"?>
<!DOCTYPE svg PUBLIC "-//W3C//DTD SVG 1.1//EN" "http://www.w3.org/Graphics/SVG/1.1/DTD/svg11.dtd">
<!-- Creator: CorelDRAW -->
<svg xmlns="http://www.w3.org/2000/svg" xml:space="preserve" width="1.78145in" height="2.42281in" version="1.1" style="shape-rendering:geometricPrecision; text-rendering:geometricPrecision; image-rendering:optimizeQuality; fill-rule:evenodd; clip-rule:evenodd"
viewBox="0 0 797.68 1084.86"
 xmlns:xlink="http://www.w3.org/1999/xlink"
 xmlns:xodm="http://www.corel.com/coreldraw/odm/2003">
 <defs>
  <style type="text/css">
   <![CDATA[
    .fil0 {fill:#2AF4C2}
   ]]>
  </style>
 </defs>
 <g id="Layer_x0020_1">
  <metadata id="CorelCorpID_0Corel-Layer"/>
  <path class="fil0" d="M396.01 6.3l375.27 206.11c14.59,8.02 23.67,21.25 25.9,37.75 2.22,16.5 -3.03,31.66 -14.98,43.26l-249.58 242.08c-11.73,11.38 -16.99,26.15 -15.09,42.38 1.9,16.23 10.43,29.39 24.47,37.75l148.71 88.56c16.19,9.64 25.25,26.03 24.8,44.87 -0.45,18.84 -10.28,34.78 -26.92,43.63l-537.31 286.07c-20.68,11.01 -45.35,6.82 -61.23,-10.41 -15.88,-17.23 -18.07,-42.15 -5.42,-61.88l153.15 -238.78c7.92,-12.34 10.09,-25.94 6.43,-40.14 -3.67,-14.2 -12.16,-25.04 -25.06,-32.01l-192.34 -103.8c-12.93,-6.98 -21.43,-17.85 -25.09,-32.09 -3.65,-14.24 -1.43,-27.86 6.54,-40.2l320.62 -496.2c14.5,-22.44 43.72,-29.82 67.14,-16.96z"/>
 </g>
</svg>
